<?xml version="1.0" encoding="UTF-8" standalone="no"?> <svg xmlns="http://www.w3.org/2000/svg" version="1.0" width="1200.000000pt" height="627.000000pt" viewBox="0 0 1200.000000 627.000000" preserveAspectRatio="xMidYMid meet"><g transform="translate(0.000000,627.000000) scale(0.100000,-0.100000)" fill="#000000" stroke="none"><path d="M875 4051 c-55 -31 -129 -73 -165 -92 -36 -18 -119 -67 -185 -108 -134 -83 -230 -141 -260 -156 -20 -10 -20 -21 -20 -675 l0 -663 170 -100 c94 -54 176 -101 183 -104 9 -4 12 59 12 296 0 166 3 301 6 301 3 0 83 -45 178 -100 166 -96 201 -110 222 -91 5 5 79 44 164 86 85 43 244 130 352 194 l198 116 -3 364 -2 364 -227 136 c-125 75 -244 145 -265 156 -21 11 -84 46 -140 78 -56 31 -106 57 -110 56 -4 0 -53 -26 -108 -58z m301 -468 l184 -107 -2 -195 -3 -194 -150 -89 c-232 -137 -193 -131 -326 -47 -63 39 -149 94 -191 121 l-78 51 0 176 0 176 123 72 c67 39 140 81 162 93 22 12 49 29 60 36 11 8 23 14 28 14 5 0 92 -48 193 -107z"></path><path d="M4700 3560 c-84 -18 -148 -58 -196 -122 -60 -82 -84 -164 -84 -287 1 -111 11 -165 46 -236 57 -114 152 -175 285 -183 222 -13 363 128 376 378 14 265 -107 435 -323 454 -33 3 -79 1 -104 -4z m169 -189 c39 -28 65 -78 81 -155 29 -140 -34 -290 -132 -317 -142 -38 -244 99 -223 296 8 78 54 159 105 187 46 25 125 20 169 -11z"></path><path d="M10503 3560 c-158 -33 -257 -175 -270 -385 -11 -195 66 -360 196 -418 29 -13 75 -22 126 -25 103 -5 172 19 232 80 45 47 87 119 75 129 -4 3 -39 18 -79 32 l-72 26 -22 -36 c-27 -43 -95 -77 -136 -67 -54 13 -79 33 -108 86 -28 50 -30 59 -30 168 0 104 2 119 25 160 14 24 40 55 59 67 62 42 155 23 197 -42 9 -14 20 -25 25 -25 5 0 40 14 79 31 l69 31 -19 37 c-25 50 -86 106 -140 130 -54 23 -149 33 -207 21z"></path><path d="M2542 3148 l3 -403 88 -3 87 -3 0 144 0 144 125 5 c113 4 131 8 182 34 178 91 185 356 12 454 -43 24 -50 25 -272 28 l-227 3 2 -403z m419 213 c21 -22 29 -39 29 -66 0 -27 -8 -44 -29 -66 -29 -28 -32 -29 -135 -29 l-106 0 0 95 0 95 106 0 c103 0 106 -1 135 -29z"></path><path d="M3470 3146 l0 -406 85 0 85 0 0 150 0 150 68 0 67 -1 72 -149 72 -150 96 0 c52 0 95 2 95 5 0 3 -35 75 -77 161 -73 147 -77 157 -59 168 85 51 129 129 129 226 -1 102 -41 178 -116 221 -41 23 -49 24 -279 27 l-238 3 0 -405z m413 233 c51 -23 63 -104 22 -144 -23 -24 -30 -25 -145 -25 l-120 0 0 90 0 90 110 0 c60 0 120 -5 133 -11z"></path><path d="M5361 3538 c0 -7 62 -188 137 -403 l137 -390 80 0 79 0 138 395 c76 217 138 398 138 403 0 4 -40 7 -90 7 l-89 0 -82 -252 c-44 -139 -85 -257 -89 -261 -4 -5 -47 109 -95 252 l-87 261 -89 0 c-65 0 -89 -3 -88 -12z"></path><path d="M6360 3145 l0 -405 280 0 280 0 0 80 0 80 -192 2 -193 3 -3 88 -3 87 116 0 115 0 0 80 0 80 -115 0 -115 0 0 75 0 75 185 0 185 0 0 80 0 80 -270 0 -270 0 0 -405z"></path><path d="M7260 3145 l0 -405 85 0 85 0 0 241 0 241 121 -184 c67 -100 138 -209 158 -240 l36 -58 77 0 78 0 0 405 0 405 -85 0 -85 0 0 -230 c0 -126 -3 -230 -7 -230 -5 0 -75 104 -157 230 l-149 230 -78 0 -79 0 0 -405z"></path><path d="M8482 3523 c-6 -15 -72 -190 -146 -388 -74 -198 -138 -368 -141 -378 -7 -16 0 -18 85 -15 l93 3 30 83 30 83 140 -3 141 -3 29 -82 30 -83 88 0 c49 0 89 2 89 5 0 4 -49 138 -255 690 l-40 110 -81 3 c-81 3 -81 3 -92 -25z m132 -341 c20 -54 36 -102 36 -105 0 -4 -36 -7 -80 -7 l-79 0 35 97 c34 95 42 113 48 113 2 0 20 -44 40 -98z"></path><path d="M9250 3145 l0 -405 85 0 85 0 2 237 3 238 155 -237 155 -237 78 -1 77 0 0 405 0 405 -85 0 -85 0 0 -230 c0 -126 -3 -230 -7 -230 -5 0 -75 104 -157 230 l-148 230 -79 0 -79 0 0 -405z"></path><path d="M11190 3145 l0 -405 285 0 285 0 0 80 0 80 -197 2 -198 3 -3 88 -3 87 116 0 115 0 0 80 0 80 -115 0 -115 0 0 75 0 75 185 0 185 0 0 80 0 80 -270 0 -270 0 0 -405z"></path></g></svg> 